HIERARCHY
ROOT Hips
{
	OFFSET 0.00000 0.00000 0.00000
	CHANNELS 6 Xposition Yposition Zposition Zrotation Yrotation Xrotation 
	JOINT LHipJoint
	{
		OFFSET 0 0 0
		CHANNELS 3 Zrotation Yrotation Xrotation
		JOINT LeftHip
		{
			OFFSET 1.48831 -1.59570 0.95625
			CHANNELS 3 Zrotation Yrotation Xrotation
			JOINT LeftKnee
			{
				OFFSET 2.20856 -6.06797 0.00000
				CHANNELS 3 Zrotation Yrotation Xrotation
				JOINT LeftAnkle
				{
					OFFSET 2.62924 -7.22379 0.00000
					CHANNELS 3 Zrotation Yrotation Xrotation
					JOINT LeftToe
					{
						OFFSET 0.16802 -0.46163 2.41673
						CHANNELS 3 Zrotation Yrotation Xrotation
						End Site
						{
							OFFSET 0.00000 -0.00000 1.23760
						}
					}
				}
			}
		}
	}
	JOINT RHipJoint
	{
		OFFSET 0 0 0
		CHANNELS 3 Zrotation Yrotation Xrotation
		JOINT RightHip
		{
			OFFSET -1.56796 -1.59570 0.95625
			CHANNELS 3 Zrotation Yrotation Xrotation
			JOINT RightKnee
			{
				OFFSET -2.29239 -6.29829 0.00000
				CHANNELS 3 Zrotation Yrotation Xrotation
				JOINT RightAnkle
				{
					OFFSET -2.66963 -7.33475 0.00000
					CHANNELS 3 Zrotation Yrotation Xrotation
					JOINT RightToe
					{
						OFFSET -0.18185 -0.49964 2.34359
						CHANNELS 3 Zrotation Yrotation Xrotation
						End Site
						{
							OFFSET -0.00000 -0.00000 1.20477
						}
					}
				}
			}
		}
	}
	JOINT lowerback
	{
		OFFSET 0 0 0
		CHANNELS 3 Zrotation Yrotation Xrotation
		JOINT Chest
		{
			OFFSET 0.03505 2.15832 -0.34324
			CHANNELS 3 Zrotation Yrotation Xrotation
			JOINT Chest2
			{
				OFFSET -0.01089 2.17963 0.04689
				CHANNELS 3 Zrotation Yrotation Xrotation
				JOINT lowerneck
				{
					OFFSET 0 0 0
					CHANNELS 3 Zrotation Yrotation Xrotation
					JOINT Neck
					{
						OFFSET 0.04686 1.69404 0.22159
						CHANNELS 3 Zrotation Yrotation Xrotation
						JOINT Head
						{
							OFFSET 0.00265 1.69305 -0.01513
							CHANNELS 3 Zrotation Yrotation Xrotation
							End Site
							{
								OFFSET -0.00415 1.80215 -0.03034
							}
						}
					}
				}
				JOINT LeftCollar
				{
					OFFSET 0 0 0
					CHANNELS 3 Zrotation Yrotation Xrotation
					JOINT LeftShoulder
					{
						OFFSET 3.67184 1.11724 -0.19002
CHANNELS 3 Zrotation Xrotation Yrotation
						JOINT LeftElbow
						{
OFFSET 0 -5.177140 -0.000000
CHANNELS 3 Zrotation Xrotation Yrotation
							JOINT LeftWrist
							{
OFFSET 0 -3.436790 -0.000000
CHANNELS 3 Zrotation Xrotation Yrotation
								JOINT lhand
								{
									OFFSET 0 0 0
CHANNELS 3 Zrotation Xrotation Yrotation
									JOINT LFingers
									{
OFFSET 0 -0.573120 -0.000000
CHANNELS 3 Zrotation Xrotation Yrotation
										End Site
										{
OFFSET 0 -0.462060 -0.000000
										}
									}
								}
								JOINT LThumb
								{
OFFSET 0 0.000000 0.000000
CHANNELS 3 Zrotation Xrotation Yrotation
									End Site
									{
OFFSET 0 -0.469120 0.469120
									}
								}
							}
						}
					}
				}
				JOINT RightCollar
				{
					OFFSET 0 0 0
					CHANNELS 3 Zrotation Yrotation Xrotation
					JOINT RightShoulder
					{
						OFFSET -3.59596 0.95831 -0.26050
CHANNELS 3 Zrotation Xrotation Yrotation
						JOINT RightElbow
						{
OFFSET 0 -5.239080 -0.000000
CHANNELS 3 Zrotation Xrotation Yrotation
							JOINT RightWrist
							{
OFFSET 0 -3.464850 -0.000000
CHANNELS 3 Zrotation Xrotation Yrotation
								JOINT rhand
								{
									OFFSET 0 0 0
CHANNELS 3 Zrotation Xrotation Yrotation
									JOINT RFingers
									{
OFFSET 0 -0.608750 -0.000000
CHANNELS 3 Zrotation Xrotation Yrotation
										End Site
										{
OFFSET 0 -0.490790 -0.000000
										}
									}
								}
								JOINT RThumb
								{
OFFSET 0 0.000000 0.000000
CHANNELS 3 Zrotation Xrotation Yrotation
									End Site
									{
OFFSET 0 -0.498290 0.498290
									}
								}
							}
						}
					}
				}
			}
		}
	}
}
MOTION
Frames: 8
Frame Time: 0.008333333333333333
-0.845287 14.974195 -1.886881 -801.301005 -85.668039 817.868342 0.000000 0.000000 0.000000 -12.493344 -5.818766 -60.801429 10.272204 17.560095 60.394404 1.155048 -1.910050 -19.771138 0.018419 0.875601 2.406491 0.000000 0.000000 0.000000 15.329379 5.967578 -64.629977 -13.009223 -18.785311 69.153950 -1.213508 -8.878792 -25.766918 -0.875356 5.964080 -16.680464 1.284109 2.489945 37.335143 -3.559995 0.970605 16.701958 -4.713295 -0.100654 -0.068216 2.746794 8.191353 2.540188 -10.241283 9.265896 -27.011622 -4.537450 4.953085 -8.076930 0.000000 0.000000 0.000000 21.073390 -14.666496 -31.800503 56.350240 -55.256086 31.322657 17.845935 -18.460175 -8.601473 0.000000 0.000000 0.000000 -7.125000 0.000000 0.000000 -7.825739 38.896482 -1.185245 0.000000 0.000000 0.000000 -0.324734 -5.253504 24.068095 -52.778403 -54.056313 -28.408614 -25.152131 2.998780 4.038026 0.000000 0.000000 0.000000 7.125000 0.000000 0.000000 1.225309 34.437139 0.317702
-0.820086 14.964186 -1.903179 -798.269257 -86.167292 815.302242 0.000000 0.000000 0.000000 -13.223655 -5.658930 -61.487537 10.244636 17.545110 60.302863 1.138660 -2.176507 -19.563935 0.016656 0.832464 2.287879 0.000000 0.000000 0.000000 15.921132 4.334506 -65.622775 -14.321011 -19.208478 73.182358 -0.964181 -12.375839 -26.800332 -0.174530 2.691092 -7.419792 0.899316 2.455724 37.431516 -2.984343 0.839670 16.747952 -3.862559 -0.218844 -0.065663 -0.025181 5.874421 1.348461 -5.004295 6.715669 -26.908218 -2.133592 3.404194 -8.376344 0.000000 0.000000 0.000000 20.651722 -14.259002 -30.467694 59.714051 -56.233231 34.103272 18.544124 -18.422458 -8.567040 0.000000 0.000000 0.000000 -7.125000 0.000000 0.000000 -7.222348 38.912615 -1.089821 0.000000 0.000000 0.000000 -1.194792 -4.664888 24.565039 -54.241809 -54.569320 -29.597208 -25.500552 2.756837 3.929729 0.000000 0.000000 0.000000 7.125000 0.000000 0.000000 0.933533 34.330904 0.244413
-0.804771 14.876231 -1.939439 -795.320738 -86.200152 812.074150 0.000000 0.000000 0.000000 -12.852725 -5.973904 -61.973137 10.660702 17.764986 61.674794 1.188227 -2.128309 -20.010276 0.008417 0.592554 1.628386 0.000000 0.000000 0.000000 17.322137 3.794312 -62.776719 -13.181528 -18.846643 69.688304 -1.742527 -11.141673 -31.086747 -0.064192 1.632196 -4.490381 0.682922 2.297462 37.537933 -2.195162 0.633944 16.685906 -2.853200 -0.379243 -0.183299 -1.748107 -0.500287 3.412597 5.745453 -0.315749 -28.524744 2.417925 -1.043425 -9.499227 0.000000 0.000000 0.000000 20.469898 -12.218390 -29.712179 62.202675 -56.868871 36.179880 19.725396 -19.014741 -8.379742 0.000000 0.000000 0.000000 -7.125000 0.000000 0.000000 -6.182507 38.804098 -0.947909 0.000000 0.000000 0.000000 -2.162061 -5.464071 25.286492 -52.243377 -53.860803 -27.976047 -25.623147 3.296752 3.759056 0.000000 0.000000 0.000000 7.125000 0.000000 0.000000 0.826041 34.146585 0.219991
-0.782163 14.848748 -1.894709 -809.730870 -85.992099 825.906097 0.000000 0.000000 0.000000 -12.301491 -6.137360 -61.583401 10.882198 17.876958 62.398546 1.236848 -1.140166 -20.683058 0.003637 0.390823 1.073917 0.000000 0.000000 0.000000 17.346132 4.726549 -61.628695 -12.949600 -18.763894 68.968731 -1.734049 -11.435636 -31.253845 -0.063744 1.628940 -4.481306 0.841351 1.692178 37.589790 -1.392157 -0.075998 16.875790 -1.869908 -0.793604 -0.015629 -1.970491 -5.059829 4.809111 13.668359 -5.116782 -28.929791 5.727606 -4.325541 -9.396365 0.000000 0.000000 0.000000 20.264209 -10.977252 -29.463887 60.425483 -56.422173 34.695402 19.712449 -19.202275 -7.275002 0.000000 0.000000 0.000000 -7.125000 0.000000 0.000000 -6.048586 37.640185 -1.100709 0.000000 0.000000 0.000000 -2.707952 -7.186053 25.320072 -51.816602 -53.702225 -27.631670 -25.700132 3.702598 3.489805 0.000000 0.000000 0.000000 7.125000 0.000000 0.000000 0.753293 33.850779 0.205987
-0.769838 14.859547 -1.791331 -836.517282 -85.244106 852.863992 0.000000 0.000000 0.000000 -12.281214 -5.577269 -61.762796 10.934886 17.903053 62.569944 1.274118 -0.145533 -21.304812 0.003900 0.402223 1.105260 0.000000 0.000000 0.000000 17.469174 5.134384 -61.428765 -12.617724 -18.639745 67.933855 -1.678259 -10.730810 -30.377802 -0.069052 1.695603 -4.665115 1.019083 1.015728 37.152515 -0.867783 -0.851388 16.813047 -1.170969 -1.212975 0.039279 -2.031001 -7.544285 5.092382 18.195671 -7.766358 -29.685963 7.611680 -6.260425 -9.215637 0.000000 0.000000 0.000000 20.263960 -10.579570 -29.686070 59.092287 -56.063202 33.586924 19.404044 -20.089701 -6.403128 0.000000 0.000000 0.000000 -7.125000 0.000000 0.000000 -6.202580 36.703562 -1.271695 0.000000 0.000000 0.000000 -2.681333 -6.823119 25.200426 -54.578543 -54.683092 -29.871790 -27.212213 3.607002 3.513942 0.000000 0.000000 0.000000 7.125000 0.000000 0.000000 -0.487115 33.929417 -0.132303
-0.759134 14.875423 -1.660415 -861.257077 -83.450735 877.918132 0.000000 0.000000 0.000000 -12.751563 -5.050592 -61.874394 10.952684 17.911864 62.627741 1.311028 1.350484 -22.163013 0.002474 0.319557 0.878060 0.000000 0.000000 0.000000 16.974903 5.613968 -61.793668 -12.423672 -18.564059 67.325631 -1.586842 -9.562297 -28.930834 -0.080653 1.832307 -5.042375 0.850173 0.621790 36.896071 -0.733529 -1.416609 16.612358 -0.762924 -1.526810 -0.106997 -2.106436 -8.717208 5.255096 20.716825 -8.987655 -30.077418 8.645254 -7.242515 -9.066330 0.000000 0.000000 0.000000 19.997692 -10.959472 -29.129905 59.654334 -56.217070 34.053607 20.063616 -20.634338 -6.024562 0.000000 0.000000 0.000000 -7.125000 0.000000 0.000000 -5.606773 36.341566 -1.198309 0.000000 0.000000 0.000000 -2.788348 -6.625475 25.145871 -55.291375 -54.918743 -30.454307 -26.215167 4.619575 5.599877 0.000000 0.000000 0.000000 7.125000 0.000000 0.000000 0.410217 36.216477 0.088443
-0.759918 14.866564 -1.545648 -871.398851 -81.198754 888.098254 0.000000 0.000000 0.000000 -12.762230 -4.756324 -61.886913 11.091347 17.979485 63.077925 1.341944 2.975585 -23.133840 0.000800 0.180129 0.494888 0.000000 0.000000 0.000000 16.774652 6.229612 -61.955978 -12.325523 -18.524947 67.017086 -1.530115 -8.678818 -27.922754 -0.101560 2.054963 -5.657433 0.826523 0.307148 36.822390 -0.458326 -1.887564 16.670002 -0.318835 -1.811165 -0.016534 -2.456265 -9.131660 5.106535 21.955546 -9.459762 -29.855227 9.124273 -7.612715 -8.777187 0.000000 0.000000 0.000000 19.693377 -11.503558 -28.164447 61.051068 -56.583573 35.217047 20.869291 -20.173265 -6.262637 0.000000 0.000000 0.000000 -7.125000 0.000000 0.000000 -4.956358 36.639287 -1.022210 0.000000 0.000000 0.000000 -3.100585 -6.736358 25.353020 -53.439601 -54.291915 -28.944688 -26.723604 5.095435 3.707335 0.000000 0.000000 0.000000 7.125000 0.000000 0.000000 -0.081033 34.128924 -0.021577
-0.772444 14.851244 -1.454604 -878.860781 -79.218547 895.399367 0.000000 0.000000 0.000000 -13.383010 -4.272947 -61.721069 11.216405 18.039360 63.482310 1.378393 4.338892 -24.117131 0.000100 0.071745 0.197013 0.000000 0.000000 0.000000 16.052127 6.837397 -62.069466 -12.345534 -18.532954 67.079867 -1.472539 -7.856689 -26.956809 -0.099649 2.035538 -5.603894 0.570466 0.241253 37.035719 -0.417418 -2.123537 16.644116 -0.062508 -1.974021 -0.109358 -2.957072 -9.123455 5.306044 22.398734 -9.448540 -29.938865 9.395399 -7.640148 -8.773995 0.000000 0.000000 0.000000 19.529402 -11.472995 -28.018714 61.942455 -56.805702 35.962022 20.446078 -20.055056 -6.267954 0.000000 0.000000 0.000000 -7.125000 0.000000 0.000000 -5.312440 36.620795 -1.098599 0.000000 0.000000 0.000000 -3.298850 -6.178895 25.766047 -52.921907 -54.108045 -28.524829 -26.814600 5.319076 3.780158 0.000000 0.000000 0.000000 7.125000 0.000000 0.000000 -0.154043 34.213709 -0.040750
